<?xml version="1.0" encoding="UTF-8" standalone="no"?><svg xmlns="http://www.w3.org/2000/svg" xmlns:xlink="http://www.w3.org/1999/xlink" fill="#ffffff" height="89.7" preserveAspectRatio="xMidYMid meet" version="1" viewBox="0.0 0.0 126.0 89.7" width="126" zoomAndPan="magnify"><g id="change1_1"><path d="M126,70.02c0-1.395-0.912-2.568-2.167-2.99v-3.859c0-0.553-0.447-1-1-1h-30.87c-0.007,0-0.012,0.004-0.018,0.004 c-0.007,0-0.012-0.004-0.019-0.004h-7.921v-1.849c0-0.075-0.009-0.149-0.025-0.223c-0.061-0.269-0.285-0.859-1.062-1.554v-9.693 c0.027,0.001,0.054,0.007,0.081,0.007c0.805,0,1.561-0.354,2.074-0.972c0.462-0.554,0.681-1.254,0.616-1.974 c-0.065-0.718-0.407-1.367-0.963-1.83c-0.111-0.093-1.346-1.091-3.963-2.189V36.87c0.02,0,0.039,0.005,0.059,0.005 c0.822,0,1.589-0.366,2.103-1.005c0.935-1.158,0.753-2.861-0.405-3.796c-0.069-0.056-0.634-0.498-1.769-1.081 c-0.081-1.361-0.454-4.764-2.177-8.211c-1.615-3.229-4.696-6.941-10.464-8.348v-4.139c0-0.002,0-0.003,0-0.005 c0-0.005-0.001-0.01-0.002-0.015c-0.006-1.447-0.621-2.747-1.596-3.674l-0.29-3.628C66.089,1.307,64.674,0,63,0 s-3.089,1.307-3.221,2.973l-0.29,3.629c-0.98,0.931-1.599,2.239-1.599,3.694v4.141c-5.763,1.408-8.841,5.118-10.456,8.346 c-1.723,3.446-2.096,6.847-2.177,8.209c-1.136,0.584-1.701,1.026-1.77,1.082c-1.151,0.927-1.337,2.624-0.414,3.785 c0.516,0.645,1.285,1.014,2.111,1.014c0.016,0,0.032-0.004,0.049-0.004v5.008c-2.443,1.03-3.69,1.984-3.962,2.209 c-1.138,0.949-1.296,2.649-0.354,3.791c0.515,0.624,1.274,0.982,2.085,0.982c0.023,0,0.046-0.005,0.069-0.006v9.707 c-0.765,0.69-0.986,1.275-1.047,1.542C42.009,60.174,42,60.249,42,60.323v1.848h-7.963H3.167c-0.553,0-1,0.447-1,1v3.859 C0.912,67.451,0,68.625,0,70.02s0.912,2.568,2.167,2.99v13.898c0,0.553,0.447,1,1,1h29.87v0.792c0,0.553,0.447,1,1,1h57.926 c0.553,0,1-0.447,1-1v-0.792h29.87c0.553,0,1-0.447,1-1V73.009C125.088,72.588,126,71.414,126,70.02z M121.833,66.853H98.178 c-0.392-0.931-1.314-1.587-2.386-1.587h-2.841l-0.013-1.095h28.895V66.853z M78.649,72.167V70.44h16.143v1.727H78.649z M64.168,87.699h-2.336v-4.655c0-0.644,0.524-1.168,1.168-1.168s1.168,0.524,1.168,1.168V87.699z M63,79.876 c-1.747,0-3.168,1.421-3.168,3.168v4.655H58.5V74.167h9v13.532h-1.332v-4.655C66.168,81.297,64.747,79.876,63,79.876z M31.208,72.167V70.44h16.143v1.727H31.208z M35.037,64.171H49c0.149,0,0.297-0.033,0.432-0.098l2.112-1.01 c0.347-0.166,0.568-0.518,0.568-0.902v-0.838h6.534l-5.872,3.942H35.037V64.171z M74.366,68.44H51.634L63,60.809L74.366,68.44z M91.963,67.266h0.012h3.817c0.324,0,0.588,0.264,0.588,0.587c0,0.324-0.264,0.588-0.588,0.588H77.954l-1.75-1.175H91.963z M49.351,72.167V70.44h27.299v1.727H49.351z M49.796,67.266l-1.75,1.175H30.208c-0.324,0-0.588-0.264-0.588-0.588 c0-0.323,0.264-0.587,0.588-0.587H49.796z M39.722,74.167v13.532h-1.685V74.167H39.722z M41.722,74.167h1v13.532h-1V74.167z M44.722,74.167h1.889v13.532h-1.889V74.167z M48.61,74.167h1v13.532h-1V74.167z M51.61,74.167h1.89v13.532h-1.89V74.167z M55.5,74.167h1v13.532h-1V74.167z M69.5,74.167h1v13.532h-1V74.167z M72.5,74.167h1.89v13.532H72.5V74.167z M76.39,74.167h1v13.532 h-1V74.167z M79.39,74.167h1.889v13.532H79.39V74.167z M83.278,74.167h1v13.532h-1V74.167z M86.278,74.167h1.685v13.532h-1.685 V74.167z M90.951,65.266H73.225l-5.872-3.942h6.534v0.838c0,0.383,0.219,0.731,0.563,0.899l2.075,1.01 c0.137,0.066,0.286,0.101,0.438,0.101h13.975L90.951,65.266z M63,7.187c1.213,0,2.255,0.705,2.767,1.72 C65.037,8.768,64.109,8.652,63,8.652s-2.037,0.116-2.767,0.254C60.745,7.891,61.787,7.187,63,7.187z M61.773,3.132 C61.823,2.497,62.362,2,63,2s1.177,0.497,1.227,1.133l0.182,2.276c-0.45-0.13-0.917-0.222-1.409-0.222s-0.958,0.092-1.409,0.222 L61.773,3.132z M59.891,11.03c0.629-0.165,1.705-0.378,3.109-0.378c1.405,0,2.482,0.212,3.109,0.378v3.022 c-0.667-0.09-1.375-0.142-2.105-0.172v-1.161c0-0.553-0.447-1-1-1s-1,0.447-1,1v1.161c-0.733,0.03-1.444,0.082-2.113,0.172V11.03z M63.004,15.847c9.886,0,13.571,6.108,14.948,10.726c-0.65-0.216-1.465-0.458-2.463-0.699v-1.786c0-0.553-0.447-1-1-1s-1,0.447-1,1 v1.361c-0.528-0.1-1.077-0.196-1.673-0.286v-3.02c0-0.553-0.447-1-1-1s-1,0.447-1,1v2.766c-0.545-0.06-1.115-0.114-1.706-0.161 v-3.541c0-0.553-0.447-1-1-1s-1,0.447-1,1v3.416c-0.675-0.031-1.377-0.052-2.104-0.063v-4.373c0-0.553-0.447-1-1-1s-1,0.447-1,1 v4.373c-0.731,0.011-1.436,0.031-2.114,0.063v-3.416c0-0.553-0.447-1-1-1s-1,0.447-1,1v3.54c-0.592,0.047-1.161,0.1-1.706,0.16 v-2.765c0-0.553-0.447-1-1-1s-1,0.447-1,1v3.019c-0.596,0.089-1.145,0.186-1.673,0.285v-1.359c0-0.553-0.447-1-1-1s-1,0.447-1,1 v1.784c-0.994,0.24-1.806,0.481-2.454,0.696C49.436,21.949,53.123,15.847,63.004,15.847z M47.508,28.897 c1.4-0.574,6.462-2.353,15.492-2.353c8.985,0,14.09,1.787,15.501,2.361c0.074,0.429,0.127,0.816,0.166,1.161 c-3.073-1.195-8.117-2.479-15.664-2.479c-7.546,0-12.589,1.283-15.662,2.478C47.38,29.719,47.433,29.329,47.508,28.897z M44.637,34.611c-0.239-0.302-0.192-0.741,0.106-0.982c0.05-0.04,5.146-4.04,18.26-4.04c13.113,0,18.209,4,18.26,4.041 c0.301,0.242,0.348,0.684,0.104,0.985c-0.229,0.287-0.651,0.367-1.007,0.086c-0.204-0.151-5.133-3.712-17.357-3.712 c-12.368,0-17.329,3.69-17.387,3.734C45.329,34.951,44.865,34.896,44.637,34.611z M47.233,36.064 c1.326-0.766,6.119-3.074,15.77-3.074c9.678,0,14.473,2.323,15.761,3.065v5.095c-0.459-0.155-0.947-0.308-1.464-0.457v-2.651 c0-0.553-0.447-1-1-1s-1,0.447-1,1v2.13c-0.568-0.132-1.166-0.257-1.791-0.375v-2.763c0-0.553-0.447-1-1-1s-1,0.447-1,1v2.432 c-0.78-0.113-1.596-0.212-2.453-0.296V36.01c0-0.553-0.447-1-1-1s-1,0.447-1,1v3.003c-0.972-0.061-1.988-0.1-3.052-0.116v-3.683 c0-0.553-0.447-1-1-1s-1,0.447-1,1v3.682c-1.067,0.015-2.086,0.054-3.06,0.114V36.01c0-0.553-0.447-1-1-1s-1,0.447-1,1v3.154 c-0.858,0.082-1.674,0.179-2.453,0.291v-2.421c0-0.553-0.447-1-1-1s-1,0.447-1,1v2.748c-0.626,0.117-1.223,0.24-1.791,0.371v-2.111 c0-0.553-0.447-1-1-1s-1,0.447-1,1v2.626c-0.518,0.149-1.007,0.301-1.467,0.457V36.064z M42.461,46.604 c-0.244-0.296-0.203-0.736,0.088-0.979c0.107-0.089,1.365-1.085,4.061-2.141c0.007-0.003,0.015-0.005,0.022-0.008 c3.218-1.258,8.482-2.599,16.369-2.599c5.525,0,9.76,0.654,12.908,1.477c0.004,0.002,0.009,0.002,0.013,0.004 c1.339,0.35,2.468,0.73,3.426,1.104c0.023,0.011,0.046,0.018,0.07,0.027c2.68,1.054,3.923,2.047,4.029,2.135 c0.146,0.122,0.233,0.286,0.25,0.474c0.018,0.189-0.038,0.366-0.16,0.513c-0.237,0.283-0.677,0.344-0.997,0.081 c-0.055-0.045-5.707-4.413-19.54-4.413c-13.839,0-19.495,4.377-19.563,4.432C43.167,46.931,42.697,46.888,42.461,46.604z M45.072,48.016c1.408-0.87,6.887-3.74,17.928-3.74c11.064,0,16.545,2.883,17.918,3.73v9.262c-0.36-0.172-0.765-0.342-1.214-0.509 v-6.763c0-0.553-0.447-1-1-1s-1,0.447-1,1v6.136c-0.677-0.179-1.429-0.347-2.259-0.502v-7.173c0-0.553-0.447-1-1-1s-1,0.447-1,1 v6.852c-1.042-0.144-2.19-0.266-3.448-0.364v-7.719c0-0.553-0.447-1-1-1s-1,0.447-1,1v7.59c-1.232-0.063-2.568-0.1-3.997-0.113 v-8.171c0-0.553-0.447-1-1-1s-1,0.447-1,1v8.171c-1.43,0.013-2.765,0.05-3.997,0.113v-7.59c0-0.553-0.447-1-1-1s-1,0.447-1,1v7.72 c-1.259,0.098-2.406,0.22-3.448,0.364v-6.852c0-0.553-0.447-1-1-1s-1,0.447-1,1v7.174c-0.83,0.155-1.582,0.323-2.259,0.502v-6.137 c0-0.553-0.447-1-1-1s-1,0.447-1,1v6.764c-0.453,0.168-0.862,0.34-1.224,0.514V48.016z M44,60.5c0.064-0.104,0.27-0.379,0.763-0.734 c0.005-0.005,0.013-0.008,0.018-0.013c1.577-1.127,6.058-3.057,18.219-3.057c7.93,0,12.584,0.815,15.305,1.695 c0.013,0.006,0.027,0.008,0.04,0.013c1.425,0.464,2.316,0.945,2.861,1.334c0.015,0.015,0.035,0.023,0.05,0.037 c0.486,0.355,0.685,0.628,0.748,0.728v1.668h-4.812l-1.306-0.636v-1.212c0-0.553-0.447-1-1-1H64.375l-0.817-0.549 c-0.338-0.227-0.777-0.227-1.115,0l-0.817,0.549H51.112c-0.553,0-1,0.447-1,1v1.208l-1.339,0.64H44V60.5z M33.037,64.171v1.095 h-2.829c-1.072,0-1.994,0.656-2.386,1.587H4.167v-2.682H33.037z M3.167,68.853h24.655c0.263,0.624,0.762,1.124,1.386,1.386v0.948 H3.167C2.523,71.187,2,70.663,2,70.02S2.523,68.853,3.167,68.853z M8.624,85.907H7.441v-7.721h1.183V85.907z M4.167,73.187h1.274 v12.721H4.167V73.187z M15.798,85.907h-1.399v-5.124c0-0.386,0.314-0.7,0.7-0.7s0.699,0.314,0.699,0.7V85.907z M22.534,85.907 h-1.399v-7.021c0-0.386,0.314-0.7,0.7-0.7s0.699,0.314,0.699,0.7V85.907z M29.262,85.907h-1.399v-5.124c0-0.386,0.314-0.7,0.7-0.7 s0.699,0.314,0.699,0.7V85.907z M31.262,85.907v-5.124c0-1.489-1.211-2.7-2.699-2.7c-1.489,0-2.7,1.211-2.7,2.7v5.124h-1.328v-7.021 c0-1.489-1.211-2.7-2.699-2.7c-1.489,0-2.7,1.211-2.7,2.7v7.021h-1.337v-5.124c0-1.489-1.211-2.7-2.699-2.7 c-1.489,0-2.7,1.211-2.7,2.7v5.124h-1.774v-8.721c0-0.553-0.447-1-1-1H7.441v-3h21.771c0.011,0.543,0.45,0.98,0.996,0.98h2.829 v11.74H31.262z M35.037,74.167h1v13.532h-1V74.167z M90.963,87.699h-1V74.167h1V87.699z M92.963,74.167h2.829 c0.546,0,0.985-0.437,0.996-0.98h21.771v3h-2.183c-0.553,0-1,0.447-1,1v8.721h-1.774v-5.124c0-1.489-1.211-2.7-2.7-2.7 c-1.488,0-2.699,1.211-2.699,2.7v5.124h-1.337v-7.021c0-1.489-1.211-2.7-2.7-2.7c-1.488,0-2.699,1.211-2.699,2.7v7.021h-1.328 v-5.124c0-1.489-1.211-2.7-2.7-2.7c-1.488,0-2.699,1.211-2.699,2.7v5.124h-1.775V74.167z M118.559,85.907h-1.183v-7.721h1.183 V85.907z M111.602,85.907h-1.399v-5.124c0-0.386,0.313-0.7,0.699-0.7s0.7,0.314,0.7,0.7V85.907z M104.865,85.907h-1.399v-7.021 c0-0.386,0.313-0.7,0.699-0.7s0.7,0.314,0.7,0.7V85.907z M98.138,85.907h-1.399v-5.124c0-0.386,0.313-0.7,0.699-0.7 s0.7,0.314,0.7,0.7V85.907z M120.559,85.907V73.187h1.274v12.721H120.559z M122.833,71.187H96.792v-0.948 c0.624-0.263,1.124-0.762,1.386-1.386h24.655c0.644,0,1.167,0.523,1.167,1.167S123.477,71.187,122.833,71.187z" fill="inherit"/></g></svg>