<?xml version="1.0" encoding="UTF-8" standalone="no"?><svg xmlns="http://www.w3.org/2000/svg" xmlns:xlink="http://www.w3.org/1999/xlink" fill="#ffffff" height="115.4" preserveAspectRatio="xMidYMid meet" version="1" viewBox="10.0 5.6 111.7 115.4" width="111.7" zoomAndPan="magnify"><g id="change1_1"><path d="M69.7940674,54.4855957c0.7075195,0.1696777,1.4266968,0.307312,2.1639404,0.390686 C72.6290894,54.9521484,73.3085938,55,74,55c0.685791,0,1.3599854-0.0465698,2.0258179-0.1212769 c0.7382202-0.0827637,1.458252-0.2203369,2.166687-0.3897095C86.1079102,52.597168,92,45.4949951,92,37 c0-3.3961792-0.9578247-6.5610352-2.5927124-9.2716064c0.0284424,0.0002441,0.0559082,0.0042725,0.0844116,0.0042725 c4.9830322,0,9.022522-4.0394897,9.022522-9.0224609s-4.0394897-9.0224609-9.022522-9.0224609 c-4.9829712,0-9.0224609,4.0394897-9.0224609,9.0224609c0,0.5332031,0.0552368,1.0526123,0.1439209,1.5604248 C78.5640259,19.4597778,76.3375244,19,74,19c-9.9411011,0-18,8.0588379-18,18 C56,45.4901733,61.885498,52.5889282,69.7940674,54.4855957z M74,53c-6.6061401,0-12.2887573-4.0250854-14.7276001-9.7509766 c4.2207642-2.381958,3.5634766-6.7055054,3.5634766-6.7055054c5.1348877,0,9.2562866-4.1945801,11.4018555-6.9309692 c2.1455688,2.7363892,6.2669678,6.9309692,11.4018555,6.9309692c0,0-0.625061,4.0612793,3.173584,6.4807129 C86.4279175,48.8675537,80.69104,53,74,53z"/><path d="M120.6665649,102.421875l-17.9611816-34.6195068c-3.0952759-5.9660034-9.2565308-9.7105713-15.9776611-9.7105713 h-6.2272949c-0.0231323,0.0523071-0.0355835,0.107666-0.062439,0.1586914 C79.3164673,60.3803711,77.3261108,61.7582397,75,62.0673218V102h-1h-1V62.0706787 c-2.2921143-0.3040161-4.2623901-1.6529541-5.3950195-3.7420654l-0.0317383-0.0581055 c-0.1497803-0.2761841-0.230957-0.5745239-0.2687988-0.8771362c-5.9157104-1.5914307-10.8921509-5.8378906-13.3001709-11.680542 l-7.949707-19.2888184l-0.5744629-2.3057251c-0.2530518-1.0157471-0.3721313-2.0602417-0.354187-3.1068115l0.0344238-2.0042114 c0.0328369-1.9130249-0.3922729-3.8062134-1.2398682-5.5215454l-3.0065918-6.085022 c-0.5516357-1.116394-1.6789551-1.7801514-2.8648071-1.7801514c-0.3510132,0-0.7069702,0.0581055-1.0548706,0.1798706 c-1.5266113,0.5342407-2.413147,2.1251221-2.0643921,3.7045288l0.6982422,3.1616821 c0.1499634,0.678894-0.0634155,1.3869019-0.5634766,1.869873l-2.5720825,2.4842529 c-1.6226807,1.5671997-2.229126,3.9121704-1.5696411,6.0695801l2.2415771,7.3334351l0.3379517,0.9806519l13.6428833,38.8353271 c0,0,6.1668091,17.4523315,6.4186401,31.7602539H40V83.0791016V77V62.8510742c0-0.3833008-0.2211914-0.730957-0.5664062-0.8979492 c-0.3442383-0.1660156-0.7573242-0.1206055-1.0576172,0.1166992C38.3505859,62.0898438,35.7915039,64.0625,30.7114258,64.0625 c-2.0512695,0-3.0732422-0.4116211-4.2563477-0.8886719c-1.5390625-0.6201172-3.2836914-1.3227539-7.2783203-1.3227539 c-2.637207,0-5.5385742,0.7792969-8.6225586,2.3164062C10.2143555,64.3364258,10,64.6831055,10,65.0625v20.2280273 c0,0.3461914,0.1791992,0.6679688,0.4736328,0.8500977c0.293457,0.1826172,0.6630859,0.199707,0.972168,0.0449219 c2.8046875-1.3979492,5.4057617-2.1064453,7.730957-2.1064453c3.6069336,0,5.0932617,0.5991211,6.5307617,1.1782227 c1.2612305,0.5078125,2.5649414,1.0332031,5.0039062,1.0332031c3.4158936,0,5.8364258-0.7973633,7.2885742-1.4802246V102 h-9.4603271c-1.486084,0-2.453125,1.5632935-1.7896118,2.8930054l7.4851685,15 C34.5737305,120.5713501,35.2666626,121,36.0247803,121H74h37.9752197c0.7581177,0,1.4510498-0.4286499,1.7895508-1.1069946 l7.4851685-15C121.7041626,103.982666,121.3840942,102.9746094,120.6665649,102.421875z M37.5809937,12.2353516 l-0.6982422-3.1616821c-0.1303101-0.59021,0.2015991-1.1858521,0.7720947-1.385498 c0.1281738-0.0448608,0.2608032-0.067627,0.3942261-0.067627c0.4580688,0,0.8687134,0.255249,1.0717163,0.6661377 l3.0066528,6.085022c0.703125,1.4230957,1.0604248,3.0141602,1.0332031,4.6012573l-0.0344238,2.0042114 c-0.0209351,1.22052,0.118103,2.4400635,0.413208,3.6245728l0.1176147,0.472168l-9.1670532,2.8444824l-1.65448-5.4127197 c-0.4419556-1.4456787-0.0409546-2.9961548,1.0464478-4.0463867l2.5720215-2.4841919 C37.4468994,15.0161133,37.8787231,13.5831299,37.5809937,12.2353516z M26.4550781,83.4018555 c-1.5390625-0.6201172-3.2836914-1.3227539-7.2783203-1.3227539c-2.2211914,0-4.6293945,0.5527344-7.1767578,1.6455078V65.6889648 c2.59375-1.2197266,5.0053711-1.8378906,7.1767578-1.8378906c3.6069336,0,5.0932617,0.5986328,6.5307617,1.1782227 C26.96875,65.5371094,28.2724609,66.0625,30.7114258,66.0625c3.409668,0,5.8354492-0.7954102,7.2885742-1.4775391V77v5.5473633 c-0.8818359,0.5351562-3.3134766,1.7431641-7.2885742,1.7431641 C28.6601562,84.2905273,27.6381836,83.8789062,26.4550781,83.4018555z M79.8165283,119 C82.0542603,117.2620239,83.5,114.5527954,83.5,111.5s-1.4457397-5.7619629-3.6835327-7.5h39.6438599l0.000061-0.000061 L111.9752197,119H79.8165283z M36.0247803,118.999939L28.5396729,104H38h2h28.1835327 C65.9457397,105.7380371,64.5,108.4472046,64.5,111.5s1.4457397,5.7619629,3.6834717,7.499939H36.0247803z M74,119 c-0.0001831,0-0.0004272-0.000061-0.0006104-0.000061C69.8640747,118.9995728,66.5,115.6353149,66.5,111.5 c0-3.8007202,2.8442993-6.9425659,6.5146484-7.4275513C73.3379517,104.0297241,73.6652222,104,74,104 s0.6620483,0.0297241,0.9853516,0.0724487C78.6557007,104.5574341,81.5,107.6992798,81.5,111.5 c0,4.1353149-3.3640747,7.4996338-7.4993896,7.5C74.0004272,119,74.0001831,119,74,119z M81,76h6c0.5522461,0,1,0.4477539,1,1 s-0.4477539,1-1,1h-6c-0.5522461,0-1-0.4477539-1-1S80.4477539,76,81,76z M93.8573608,89.965271 c1.2174683-2.5206299,1.3422852-5.3880615,1.2574463-7.2247314L105.8347778,102H96.257019L93.8573608,89.965271z"/></g></svg>