<?xml version="1.0" encoding="UTF-8" standalone="no"?><svg xmlns="http://www.w3.org/2000/svg" xmlns:xlink="http://www.w3.org/1999/xlink" fill="#000000" height="1962" preserveAspectRatio="xMidYMid meet" version="1" viewBox="245.3 245.3 1962.0 1962.0" width="1962" zoomAndPan="magnify"><g fill="#ffffff" id="change1_1"><path d="M 1223.382812 507.421875 C 1185.71875 508.804688 1148.546875 512.992188 1112.109375 520.152344 L 1112.109375 1006.230469 C 1148.660156 1008.679688 1185.867188 1010.027344 1223.382812 1010.480469 L 1223.382812 507.421875"/><path d="M 1057.113281 533.027344 C 1020.5625 543.25 985.101562 556.519531 950.820312 572.230469 L 950.820312 988.542969 C 985.421875 993.878906 1020.914062 998.234375 1057.113281 1001.6875 L 1057.113281 533.027344"/><path d="M 744.53125 714.269531 C 691.855469 765.945312 646.488281 825.683594 611.382812 892.539062 C 651.855469 911.296875 696.484375 928.039062 744.53125 942.625 L 744.53125 714.269531"/><path d="M 895.8125 600.414062 C 862.121094 619.511719 829.816406 640.976562 799.539062 665.144531 L 799.539062 957.855469 C 830.582031 965.75 862.652344 972.976562 895.8125 979.191406 L 895.8125 600.414062"/><path d="M 1550.949219 573.890625 C 1516.660156 557.964844 1481.234375 544.371094 1444.6875 533.941406 L 1444.6875 1001.339844 C 1480.84375 997.855469 1516.367188 993.40625 1550.949219 988.003906 L 1550.949219 573.890625"/><path d="M 1995.21875 1267.25 C 1990.503906 1354.679688 1970.746094 1438.160156 1938.476562 1515.070312 C 1825.515625 1784.308594 1559.453125 1973.492188 1249.179688 1973.492188 C 938.875 1973.492188 672.8125 1784.308594 559.855469 1515.070312 C 527.609375 1438.160156 507.832031 1354.679688 503.113281 1267.25 C 502.378906 1253.691406 501.964844 1240.011719 501.964844 1226.25 C 501.964844 1111.289062 527.964844 1002.433594 574.332031 905.125 C 694.453125 653.1875 951.460938 479.003906 1249.179688 479.003906 C 1546.875 479.003906 1803.878906 653.1875 1924.003906 905.125 C 1970.367188 1002.433594 1996.367188 1111.289062 1996.367188 1226.25 C 1996.367188 1240.011719 1995.960938 1253.691406 1995.21875 1267.25 Z M 2033.6875 1354.148438 L 2207.25 1226.25 L 2033.6875 1098.347656 L 2159.230469 923.105469 L 1954.660156 855.101562 L 2019.890625 649.625 L 1804.324219 648.175781 L 1802.875 432.609375 L 1597.398438 497.839844 L 1529.394531 293.269531 L 1354.117188 418.8125 L 1226.25 245.25 L 1098.378906 418.8125 L 923.105469 293.269531 L 855.128906 497.839844 L 649.613281 432.609375 L 648.203125 648.175781 L 432.605469 649.625 L 497.835938 855.101562 L 293.265625 923.105469 L 418.8125 1098.347656 L 245.25 1226.25 L 418.8125 1354.148438 L 293.265625 1529.390625 L 497.835938 1597.402344 L 432.605469 1802.882812 L 648.203125 1804.328125 L 649.613281 2019.890625 L 855.128906 1954.660156 L 923.105469 2159.230469 L 1098.378906 2033.691406 L 1226.25 2207.25 L 1354.117188 2033.691406 L 1529.394531 2159.230469 L 1597.398438 1954.660156 L 1802.875 2019.890625 L 1804.324219 1804.328125 L 2019.890625 1802.882812 L 1954.660156 1597.402344 L 2159.230469 1529.390625 L 2033.6875 1354.148438"/><path d="M 1389.636719 520.777344 C 1353.242188 513.4375 1316.039062 509.105469 1278.394531 507.566406 L 1278.394531 1010.445312 C 1315.917969 1009.921875 1353.089844 1008.464844 1389.636719 1005.972656 L 1389.636719 520.777344"/><path d="M 1276.71875 1765.179688 L 1338.324219 1774.109375 L 1293.757812 1817.558594 L 1304.269531 1878.910156 L 1249.1875 1849.929688 L 1194.09375 1878.910156 L 1204.609375 1817.558594 L 1160.039062 1774.109375 L 1221.648438 1765.179688 L 1249.1875 1709.378906 Z M 1495.117188 1727.949219 L 1511.324219 1667.847656 L 1549.148438 1717.25 L 1611.3125 1714.097656 L 1576.007812 1765.359375 L 1598.226562 1823.519531 L 1538.566406 1805.769531 L 1490.167969 1844.828125 L 1488.570312 1782.597656 L 1436.425781 1748.617188 Z M 1009.769531 1782.597656 L 1008.210938 1844.828125 L 959.777344 1805.769531 L 900.144531 1823.519531 L 922.339844 1765.359375 L 887.054688 1714.097656 L 949.191406 1717.25 L 987.042969 1667.847656 L 1003.234375 1727.949219 L 1061.910156 1748.617188 Z M 612.886719 1562.9375 C 736.871094 1797.609375 980.085938 1945.957031 1249.1875 1945.957031 C 1518.253906 1945.957031 1761.476562 1797.609375 1885.453125 1562.9375 C 1723.535156 1613.699219 1492.25 1643.320312 1249.1875 1643.320312 C 1006.082031 1643.320312 774.808594 1613.699219 612.886719 1562.9375"/><path d="M 1757.25 941.503906 C 1803.972656 927.148438 1847.476562 910.847656 1886.953125 892.535156 C 1852.617188 827.148438 1808.488281 768.585938 1757.25 717.683594 L 1757.25 941.503906"/><path d="M 1702.246094 667.871094 C 1671.996094 643.367188 1639.683594 621.675781 1605.972656 602.367188 L 1605.972656 978.5 C 1639.136719 972.222656 1671.234375 964.972656 1702.246094 956.945312 L 1702.246094 667.871094"/><path d="M 696.839844 1529.898438 C 658.664062 1329.328125 639.625 1228.789062 601.628906 1026.980469 C 641.214844 1035.769531 661.050781 1039.871094 700.878906 1047.261719 C 719.242188 1167.921875 728.4375 1228.171875 746.832031 1348.488281 C 767.171875 1234.738281 777.398438 1177.820312 797.828125 1063.679688 C 837.265625 1069.699219 857.015625 1072.289062 896.605469 1077.011719 C 855.160156 1265.449219 834.46875 1359.308594 793.199219 1546.339844 C 754.554688 1540.421875 735.277344 1537.121094 696.839844 1529.898438"/><path d="M 1124.671875 1441.820312 C 1124.671875 1358.21875 1124.671875 1316.421875 1124.671875 1232.820312 C 1124.671875 1201.960938 1117.648438 1161.371094 1077.011719 1159.039062 C 1036.679688 1156.648438 1029.671875 1196.980469 1029.671875 1227.339844 C 1029.671875 1310.910156 1029.671875 1352.710938 1029.671875 1436.308594 C 1029.671875 1466.929688 1036.390625 1508.289062 1077.011719 1510.621094 C 1118.238281 1513 1124.671875 1472.96875 1124.671875 1441.820312 Z M 923.398438 1404.53125 C 923.398438 1339.558594 923.398438 1307.039062 923.398438 1242.050781 C 923.398438 1146.160156 959.746094 1076.769531 1077.011719 1083.550781 C 1194.269531 1090.300781 1231.289062 1163.929688 1231.289062 1259.851562 C 1231.289062 1323.910156 1231.261719 1355.890625 1231.261719 1419.910156 C 1231.261719 1513.148438 1193.679688 1592.558594 1077.011719 1585.808594 C 960.925781 1579.121094 923.398438 1497.710938 923.398438 1404.53125"/><path d="M 1328.5 1580.390625 C 1328.5 1416.261719 1328.5 1334.171875 1328.5 1169.980469 C 1297.558594 1170.769531 1282.078125 1170.949219 1251.191406 1170.949219 C 1251.191406 1141.710938 1251.191406 1127.238281 1251.191406 1098 C 1355.058594 1098 1407.058594 1095.699219 1510.640625 1086.730469 C 1510.640625 1115.949219 1510.640625 1130.511719 1510.640625 1159.71875 C 1480.398438 1162.371094 1465.28125 1163.429688 1434.980469 1165.289062 C 1434.980469 1329.449219 1434.980469 1411.660156 1434.980469 1575.789062 C 1392.410156 1578.378906 1371.128906 1579.300781 1328.5 1580.390625"/><path d="M 1546.835938 1566.859375 C 1546.835938 1373.460938 1546.871094 1276.742188 1546.871094 1083.335938 C 1634.480469 1074.652344 1678.183594 1068.816406 1765.027344 1053.71875 C 1765.027344 1080.597656 1765.027344 1093.957031 1765.027344 1120.84375 C 1720.285156 1128.585938 1697.816406 1132.042969 1652.816406 1138.105469 C 1652.816406 1190.765625 1652.835938 1217.054688 1652.835938 1269.703125 C 1684.703125 1265.402344 1700.589844 1263.066406 1732.304688 1257.945312 C 1732.304688 1285.414062 1732.304688 1299.144531 1732.304688 1326.648438 C 1700.589844 1331.835938 1684.703125 1334.195312 1652.835938 1338.472656 C 1652.835938 1397.980469 1652.835938 1427.761719 1652.835938 1487.269531 C 1697.851562 1481.199219 1720.285156 1477.78125 1765.027344 1470 C 1765.027344 1496.851562 1765.027344 1510.230469 1765.027344 1537.078125 C 1678.183594 1552.210938 1634.449219 1558.160156 1546.835938 1566.859375"/><path d="M 1801.441406 1530.535156 C 1801.441406 1496.496094 1801.417969 1479.546875 1801.417969 1445.464844 C 1838.675781 1438.507812 1857.335938 1434.734375 1894.417969 1426.605469 C 1894.417969 1460.675781 1894.382812 1477.65625 1894.382812 1511.734375 C 1857.300781 1519.835938 1838.710938 1523.585938 1801.441406 1530.535156 Z M 1831.398438 1400.664062 C 1819.429688 1259.40625 1813.402344 1188.800781 1801.417969 1047.433594 C 1841.003906 1040.03125 1860.777344 1035.976562 1900.105469 1027.28125 C 1885.992188 1174.042969 1878.902344 1247.332031 1864.75 1393.945312 C 1851.4375 1396.734375 1844.78125 1398.035156 1831.398438 1400.664062"/></g></svg>