<?xml version="1.0" encoding="UTF-8" standalone="no"?><svg xmlns="http://www.w3.org/2000/svg" xmlns:xlink="http://www.w3.org/1999/xlink" fill="#ffffff" height="62" preserveAspectRatio="xMidYMid meet" version="1" viewBox="0.0 0.0 62.0 62.0" width="62" zoomAndPan="magnify"><g id="change1_1"><path d="M58,56c0-1.103-0.897-2-2-2h-8c-1.103,0-2,0.897-2,2v4h-2v-4c0-1.103-0.897-2-2-2h-8c-1.103,0-2,0.897-2,2v4h-2v-4 c0-1.103-0.897-2-2-2h-8c-1.103,0-2,0.897-2,2v4h-2v-4c0-1.103-0.897-2-2-2H6c-1.103,0-2,0.897-2,2v4H0v2h62v-2h-4V56z M48,56h8v4 h-8V56z M34,56h8v4h-8V56z M20,56h8v4h-8V56z M6,56h8v4H6V56z" fill="inherit"/><path d="M16,52v-4c0-1.103-0.897-2-2-2H6c-1.103,0-2,0.897-2,2v4h2v-4h8v4H16z" fill="inherit"/><path d="M30,52v-4c0-1.103-0.897-2-2-2h-8c-1.103,0-2,0.897-2,2v4h2v-4h8v4H30z" fill="inherit"/><path d="M44,52v-4c0-1.103-0.897-2-2-2h-8c-1.103,0-2,0.897-2,2v4h2v-4h8v4H44z" fill="inherit"/><path d="M58,52v-4c0-1.103-0.897-2-2-2h-8c-1.103,0-2,0.897-2,2v4h2v-4h8v4H58z" fill="inherit"/><path d="M60,38H40V28c1.103,0,2-0.897,2-2v-2c0-1.103-0.897-2-2-2v-5c0-2.757-2.243-5-5-5h-2c-1.654,0-3,1.346-3,3s1.346,3,3,3 s3-1.346,3-3v-0.829c1.164,0.413,2,1.525,2,2.829v5H22c-1.103,0-2,0.897-2,2v2c0,1.103,0.897,2,2,2v10H2c-1.103,0-2,0.897-2,2v2 c0,1.103,0.897,2,2,2h58c1.103,0,2-0.897,2-2v-2C62,38.897,61.103,38,60,38z M34,15c0,0.552-0.449,1-1,1s-1-0.448-1-1s0.449-1,1-1 h1V15z M22,24h18l0.001,2H22V24z M24,28h14v10h-2v-6c0-1.103-0.897-2-2-2h-6c-1.103,0-2,0.897-2,2v6h-2V28z M34,38h-6v-6h6V38z M2,42v-2h58l0.001,2H2z" fill="inherit"/><path d="M2,3.205v33.077l5-1.25l3.757,0.938L16,36V9.711c2.273-0.465,4.36-1.516,6.065-3.067C24.529,8.781,27.728,10,31,10 c3.358,0,6.495-1.226,8.938-3.361c1.714,1.55,3.812,2.622,6.062,3.09V36h5l4-0.969l5,1.25V3.205 c0.065-0.12,0.134-0.236,0.195-0.359L61.618,0H0.382l1.423,2.846C1.866,2.968,1.935,3.085,2,3.205z M14,34h-2V18h-2v15.719l-2-0.5 V20H6v13.219l-2,0.5V5.978C6.401,8.515,9.754,10,13.381,10C13.59,10,13.793,9.971,14,9.961V34z M31,8 c-2.763,0-5.466-1.017-7.56-2.805c0.326-0.405,0.635-0.829,0.916-1.278l0.617-0.987C26.365,4.844,28.574,6,31,6 c2.797,0,5.31-1.532,6.606-4h3.589l-0.334,0.534C38.723,5.957,35.036,8,31,8z M26.784,2h8.432C34.191,3.25,32.667,4,31,4 S27.809,3.25,26.784,2z M58,33.719l-2-0.5V20h-2v13.219l-2,0.5V18h-2v16h-2V9.968C48.207,9.978,48.412,10,48.619,10 c3.627,0,6.98-1.485,9.381-4.022V33.719z M48.619,8c-2.681,0-5.279-1.006-7.271-2.777c0.435-0.511,0.847-1.047,1.21-1.629 l0.415-0.665C44.365,4.844,46.574,6,49,6c2.797,0,5.31-1.532,6.606-4h2.775C56.508,5.702,52.772,8,48.619,8z M44.784,2h8.432 C52.191,3.25,50.667,4,49,4S45.809,3.25,44.784,2z M17.216,2C16.191,3.25,14.667,4,13,4S9.809,3.25,8.784,2H17.216z M6.394,2 C7.69,4.468,10.203,6,13,6s5.31-1.532,6.606-4h3.589L22.66,2.856C20.647,6.077,17.179,8,13.381,8C9.228,8,5.492,5.702,3.618,2 H6.394z" fill="inherit"/><path d="M6 12H8V18H6z" fill="inherit"/><path d="M54 12H56V18H54z" fill="inherit"/></g></svg>